<svg viewBox="0 0 100 100" xmlns="http://www.w3.org/2000/svg" fill="none">
  <!-- Diagonal secondary connection lines -->
  <line x1="50" y1="50" x2="78" y2="22" stroke="#60a5fa" stroke-width="1.5" opacity="0.5"/>
  <line x1="50" y1="50" x2="22" y2="78" stroke="#60a5fa" stroke-width="1.5" opacity="0.5"/>
  <line x1="50" y1="50" x2="78" y2="78" stroke="#60a5fa" stroke-width="1.5" opacity="0.5"/>
  <line x1="50" y1="50" x2="22" y2="22" stroke="#60a5fa" stroke-width="1.5" opacity="0.5"/>
  <!-- Cardinal connection lines -->
  <line x1="50" y1="39" x2="50" y2="13" stroke="#60a5fa" stroke-width="2.5" opacity="0.85"/>
  <line x1="61" y1="50" x2="87" y2="50" stroke="#60a5fa" stroke-width="2.5" opacity="0.85"/>
  <line x1="50" y1="61" x2="50" y2="87" stroke="#60a5fa" stroke-width="2.5" opacity="0.85"/>
  <line x1="39" y1="50" x2="13" y2="50" stroke="#60a5fa" stroke-width="2.5" opacity="0.85"/>
  <!-- Outer cardinal nodes -->
  <circle cx="50" cy="10" r="5.5" fill="#60a5fa"/>
  <circle cx="90" cy="50" r="5.5" fill="#60a5fa"/>
  <circle cx="50" cy="90" r="5.5" fill="#60a5fa"/>
  <circle cx="10" cy="50" r="5.5" fill="#60a5fa"/>
  <!-- Outer diagonal nodes (smaller) -->
  <circle cx="80" cy="20" r="3.5" fill="#60a5fa" opacity="0.65"/>
  <circle cx="20" cy="80" r="3.5" fill="#60a5fa" opacity="0.65"/>
  <circle cx="80" cy="80" r="3.5" fill="#60a5fa" opacity="0.65"/>
  <circle cx="20" cy="20" r="3.5" fill="#60a5fa" opacity="0.65"/>
  <!-- Central node ring -->
  <circle cx="50" cy="50" r="11" stroke="#60a5fa" stroke-width="2.5"/>
  <!-- Central fill dot -->
  <circle cx="50" cy="50" r="4.5" fill="#60a5fa"/>
</svg>
